<?xml version="1.0" encoding="UTF-8" standalone="no"?>
<!DOCTYPE svg PUBLIC "-//W3C//DTD SVG 1.1//EN" "http://www.w3.org/Graphics/SVG/1.1/DTD/svg11.dtd">
<!-- Created with Vectornator (http://vectornator.io/) -->
<svg height="100%" stroke-miterlimit="10" style="fill-rule:nonzero;clip-rule:evenodd;stroke-linecap:round;stroke-linejoin:round;" version="1.1" viewBox="0 0 1080 1080" width="100%" xml:space="preserve" xmlns="http://www.w3.org/2000/svg" xmlns:vectornator="http://vectornator.io" xmlns:xlink="http://www.w3.org/1999/xlink">
<defs/>
<g id="New" vectornator:layerName="New">
<g opacity="1">
<path d="M506.656 87.0625C524.809 130.467 522.908 204.467 497.594 284.156C495.06 292.131 491.787 300.365 488.25 308.688C484.267 318.062 479.807 327.534 475.031 336.875C474.367 338.175 473.768 339.488 473.094 340.781C472.981 340.998 472.863 341.221 472.75 341.438C470.323 346.079 467.791 350.637 465.281 355.156C464.565 356.444 463.845 357.756 463.125 359.031C461.561 361.805 460.008 364.456 458.438 367.156C453.589 375.48 448.89 383.01 444.281 390.344C442.038 393.916 439.671 397.928 437.562 401.188C431.732 410.185 422.219 424.219 422.219 424.219C422.219 424.219 422.167 424.236 422.156 424.25C421.484 425.17 421.46 425.806 417.406 430.5C413.512 435.01 416.395 431.839 412.719 435.969C405.003 444.637 411.388 437.534 402.062 448.031C402.03 448.062 402.032 448.063 402 448.094C399.361 451.187 397.966 452.781 390.375 461.969C385.338 468.065 386.287 467.005 384.188 469.594C376.497 479.075 379.651 475.572 367.875 489.969C352.194 509.138 332.788 531.152 315.219 552.875C315.157 552.944 315.093 553.025 315.031 553.094C315.005 553.127 314.995 553.186 314.969 553.219C314.283 553.989 313.569 554.706 312.875 555.469C312.723 555.636 312.555 555.798 312.406 555.969C312.38 555.877 312.369 555.779 312.344 555.688C310.912 550.588 309.748 545.097 308.938 539.281C308.929 539.223 308.883 539.152 308.875 539.094C308.594 537.052 308.441 534.93 308.25 532.812C308.167 531.883 308.034 530.974 307.969 530.031C307.755 526.937 307.656 523.79 307.656 520.562C307.656 516.755 307.879 513.076 308.156 509.438C309.26 494.938 312.391 481.889 317.031 471.969C287.206 488.992 258.27 569.969 245.5 660.188C245.495 660.222 245.505 660.278 245.5 660.312C244.07 670.428 242.913 680.666 241.906 690.938C241.646 693.597 241.386 696.242 241.156 698.906C241.142 699.072 241.139 699.241 241.125 699.406C240.316 708.85 239.65 718.306 239.25 727.719C239.223 728.344 239.15 728.968 239.125 729.594C239.114 729.781 239.137 729.969 239.125 730.156C239.114 730.453 239.105 730.765 239.094 731.062C239.087 731.218 239.074 731.374 239.062 731.562C238.797 738.866 238.687 746.132 238.688 753.344C238.687 758.17 239.026 762.896 239.281 767.656C239.285 767.708 239.277 767.792 239.281 767.844C239.878 775.517 240.652 782.946 241.688 794.188C242.107 797.336 242.384 800.547 242.906 803.656C243.087 804.731 243.308 805.773 243.5 806.844C243.534 807.022 243.593 807.197 243.625 807.375C244.723 813.432 246.046 819.387 247.5 825.312C248.346 828.757 249.287 832.165 250.25 835.562C251.672 840.614 253.13 845.661 254.812 850.594C254.845 850.69 254.873 850.779 254.906 850.875C255.76 853.371 256.739 855.784 257.656 858.25C257.714 858.404 257.755 858.564 257.812 858.719C259.229 862.507 260.75 866.256 262.312 869.969C263.626 873.092 264.897 876.183 266.312 879.25C268.181 883.302 270.209 887.298 272.25 891.25C274.695 895.984 277.285 900.635 279.969 905.219C280.03 905.324 280.094 905.426 280.156 905.531C281.222 907.346 282.304 909.147 283.406 910.938C287.153 917.023 291.123 922.931 295.281 928.719C295.42 928.911 295.58 929.121 295.719 929.312C299.891 935.093 304.219 940.725 308.781 946.188C308.792 946.2 308.802 946.206 308.812 946.219C309.249 946.741 309.685 947.262 310.125 947.781C310.168 947.832 310.238 947.855 310.281 947.906C349.416 994.046 401.999 1028.42 462.188 1044.47C478.92 1048.93 496.259 1051.81 514 1053.31C517.357 1053.6 520.706 1053.92 524.094 1054.09C524.366 1054.11 524.633 1054.14 524.906 1054.16C529.902 1054.45 534.931 1054.66 540 1054.66C545.069 1054.66 550.098 1054.45 555.094 1054.16C555.366 1054.14 555.634 1054.11 555.906 1054.09C559.294 1053.92 562.643 1053.6 566 1053.31C583.741 1051.81 601.079 1048.93 617.812 1044.47C746.499 1010.15 841.313 892.844 841.312 753.344C841.313 723.237 836.843 694.182 828.625 666.75C828.622 666.739 828.629 666.699 828.625 666.688C828.622 666.677 828.624 666.666 828.625 666.656C828.589 666.537 828.566 666.431 828.531 666.312C828.506 666.23 828.493 666.145 828.469 666.062C828.447 665.991 828.428 665.916 828.406 665.844C826.695 660.196 824.809 654.627 822.781 649.125C820.732 643.567 818.519 638.086 816.156 632.688C816.15 632.673 816.131 632.671 816.125 632.656C816.114 632.632 816.105 632.618 816.094 632.594C816.051 632.496 816.012 632.409 815.969 632.312C812.91 625.348 809.59 618.52 806.031 611.844C805.84 611.484 805.692 611.109 805.5 610.75C804.372 608.139 803.412 605.208 802.438 602.312C802.074 601.238 801.651 600.299 801.312 599.188C801.305 599.164 801.29 599.149 801.281 599.125C800.012 594.952 798.943 590.53 798.094 585.875C796.761 578.561 796.11 571.468 796.062 564.906C796.062 564.894 796.064 564.886 796.062 564.875C796.062 564.739 796.063 564.605 796.062 564.469C796.062 564.258 796.092 564.085 796.094 563.875C796.104 560.81 796.197 557.825 796.469 555.031C796.576 553.943 796.671 552.765 796.781 551.688C798.621 533.635 801.335 519.007 804.656 509.531C796.079 514.699 785.04 526.078 775.125 540.781C771.885 545.586 769.165 550.298 766.719 554.906C723.524 505.594 664.471 470.591 597.562 457.625C597.035 423.732 594.579 387.784 589.688 350.5C575.003 238.58 543.156 142.316 506.656 87.0625ZM540 603.125C647.192 603.125 734.094 690.026 734.094 797.219C734.094 904.411 647.192 991.313 540 991.312C432.808 991.312 345.906 904.411 345.906 797.219C345.906 690.026 432.808 603.125 540 603.125Z" fill="#5c008b" fill-rule="nonzero" opacity="1" stroke="none"/>
<path d="M650.105 333.537C666.275 305.142 689.418 273.48 687.492 239.666C685.783 209.662 669.428 185.002 656.581 158.228C644.571 133.197 637.466 119.173 631.255 94.2589C624.243 66.1303 624.468 54.5288 625.94 25.3399C608.873 61.1213 599.657 70.9719 601.466 109.216C603.918 161.055 637.698 199.825 650.83 247.875C654.976 263.043 657.131 308.299 649.971 333.771L650.105 333.537Z" fill="#5c008b" fill-rule="nonzero" opacity="1" stroke="none"/>
</g>
<path d="M540 539.781C399.548 539.781 285.688 655.037 285.688 797.219C285.687 939.401 399.548 1054.66 540 1054.66C680.452 1054.66 794.312 939.401 794.312 797.219C794.312 655.036 680.452 539.781 540 539.781ZM540 603.125C647.192 603.125 734.094 690.026 734.094 797.219C734.094 904.411 647.192 991.313 540 991.312C432.808 991.312 345.906 904.411 345.906 797.219C345.906 690.026 432.808 603.125 540 603.125Z" fill="#8f008c" fill-rule="nonzero" opacity="1" stroke="none"/>
<g opacity="1">
<path d="M538.803 639.044L675.813 717.406L540.382 796.815L404.187 718.453L538.803 639.044Z" fill="none" opacity="1" stroke="#f28705" stroke-linecap="round" stroke-linejoin="round" stroke-width="14"/>
<path d="M404.187 717.929L540 796.292L540 955.389L404.187 876.829L404.187 717.929Z" fill="#f28705" fill-rule="nonzero" opacity="1" stroke="#f28705" stroke-linecap="round" stroke-linejoin="round" stroke-width="14"/>
<path d="M675.813 717.929L675.813 873.534L540 955.389L540 796.815L675.813 717.929Z" fill="none" opacity="1" stroke="#f28705" stroke-linecap="round" stroke-linejoin="round" stroke-width="14"/>
</g>
</g>
</svg>
